<?xml version="1.0" encoding="UTF-8"?>
<!DOCTYPE svg PUBLIC "-//W3C//DTD SVG 1.1//EN" "http://www.w3.org/Graphics/SVG/1.1/DTD/svg11.dtd">
<svg xmlns="http://www.w3.org/2000/svg" version="1.1" width="500px" height="500px" style="shape-rendering:geometricPrecision; text-rendering:geometricPrecision; image-rendering:optimizeQuality; fill-rule:evenodd; clip-rule:evenodd" xmlns:xlink="http://www.w3.org/1999/xlink">
<g><path style="opacity:0.522" fill="#4f6898" d="M 236.5,69.5 C 234.194,69.9926 231.861,70.3259 229.5,70.5C 231.713,68.6883 234.047,68.3549 236.5,69.5 Z"/></g>
<g><path style="opacity:0.999" fill="#eaedf3" d="M 236.5,69.5 C 245.833,69.5 255.167,69.5 264.5,69.5C 265.919,70.4511 267.585,70.7845 269.5,70.5C 270.5,70.5 271.5,70.5 272.5,70.5C 273.568,71.4345 274.901,71.7678 276.5,71.5C 277.167,71.5 277.833,71.5 278.5,71.5C 279.568,72.4345 280.901,72.7678 282.5,72.5C 282.833,72.5 283.167,72.5 283.5,72.5C 284.568,73.4345 285.901,73.7678 287.5,73.5C 287.833,73.5 288.167,73.5 288.5,73.5C 289.209,74.404 290.209,74.7373 291.5,74.5C 308.856,78.2295 325.19,85.5628 340.5,96.5C 340.833,97.5 341.5,98.1667 342.5,98.5C 344.853,99.3403 346.853,100.674 348.5,102.5C 348.833,103.5 349.5,104.167 350.5,104.5C 360.439,111.438 369.106,119.771 376.5,129.5C 376.427,131.027 377.094,132.027 378.5,132.5C 379.906,132.973 380.573,133.973 380.5,135.5C 380.833,136.5 381.5,137.167 382.5,137.5C 382.427,139.027 383.094,140.027 384.5,140.5C 384.427,142.027 385.094,143.027 386.5,143.5C 386.427,145.027 387.094,146.027 388.5,146.5C 389.6,147.605 390.267,148.938 390.5,150.5C 390.427,152.027 391.094,153.027 392.5,153.5C 395.267,157.464 397.267,161.797 398.5,166.5C 398.427,168.027 399.094,169.027 400.5,169.5C 403.429,175.88 405.429,182.546 406.5,189.5C 406.41,192.152 407.076,194.485 408.5,196.5C 413.766,220.48 413.766,244.48 408.5,268.5C 407.463,269.93 406.796,271.597 406.5,273.5C 406.5,274.167 406.5,274.833 406.5,275.5C 405.463,276.93 404.796,278.597 404.5,280.5C 404.5,280.833 404.5,281.167 404.5,281.5C 403.463,282.93 402.796,284.597 402.5,286.5C 398.986,299.308 393.319,310.975 385.5,321.5C 384.5,321.833 383.833,322.5 383.5,323.5C 379.891,329.715 375.558,335.382 370.5,340.5C 369.5,340.833 368.833,341.5 368.5,342.5C 363.796,348.205 358.463,353.205 352.5,357.5C 351.5,357.833 350.833,358.5 350.5,359.5C 330.672,375.958 308.672,386.291 284.5,390.5C 283.209,390.263 282.209,390.596 281.5,391.5C 258.17,395.715 235.17,395.381 212.5,390.5C 211.432,389.566 210.099,389.232 208.5,389.5C 202.629,388.408 197.296,386.741 192.5,384.5C 191.486,383.326 190.153,382.66 188.5,382.5C 186.297,382.396 184.297,381.73 182.5,380.5C 182.027,379.094 181.027,378.427 179.5,378.5C 171.014,375.429 163.347,371.096 156.5,365.5C 156.027,364.094 155.027,363.427 153.5,363.5C 136.705,351.04 122.705,336.04 111.5,318.5C 111.573,316.973 110.906,315.973 109.5,315.5C 108.655,314.329 107.989,312.995 107.5,311.5C 107.573,309.973 106.906,308.973 105.5,308.5C 100.311,299.965 96.6447,290.632 94.5,280.5C 94.1249,278.302 93.4582,276.302 92.5,274.5C 92.5,274.167 92.5,273.833 92.5,273.5C 92.7373,272.209 92.404,271.209 91.5,270.5C 80.0631,219.682 89.7297,173.348 120.5,131.5C 125.216,126.454 129.883,121.454 134.5,116.5C 137.089,115.581 139.089,113.914 140.5,111.5C 145.091,106.211 150.424,101.877 156.5,98.5C 157.5,98.1667 158.167,97.5 158.5,96.5C 180.934,81.6047 204.601,72.938 229.5,70.5C 231.861,70.3259 234.194,69.9926 236.5,69.5 Z M 401.5,248.5 C 400.776,250.218 400.109,252.052 399.5,254C 399.728,254.399 400.062,254.565 400.5,254.5C 388.272,316.456 352.272,357.623 292.5,378C 225.022,394.064 169.522,375.23 126,321.5C 96.0405,277.007 89.7071,229.007 107,177.5C 127.162,129.334 162.329,98.1677 212.5,84C 274.528,71.0097 326.362,88.1764 368,135.5C 393.772,168.665 404.939,206.332 401.5,248.5 Z M 181.5,171.5 C 182.167,171.5 182.833,171.5 183.5,171.5C 191.326,171.751 198.992,171.751 206.5,171.5C 207.167,171.5 207.833,171.5 208.5,171.5C 210.214,172.738 212.214,173.405 214.5,173.5C 218.752,174.959 222.752,176.959 226.5,179.5C 226.973,180.906 227.973,181.573 229.5,181.5C 231.866,184.857 234.199,188.19 236.5,191.5C 236.932,192.71 237.599,193.71 238.5,194.5C 239.972,198.917 241.638,203.25 243.5,207.5C 243.062,207.435 242.728,207.601 242.5,208C 243.066,208.995 243.733,209.828 244.5,210.5C 244.5,210.833 244.5,211.167 244.5,211.5C 243.557,213.001 243.891,214.335 245.5,215.5C 248.323,236.279 243.989,255.279 232.5,272.5C 229.833,274.5 227.5,276.833 225.5,279.5C 219.95,282.74 213.95,284.907 207.5,286C 198.506,286.5 189.506,286.666 180.5,286.5C 179.976,284.694 179.309,283.028 178.5,281.5C 178.5,245.833 178.5,210.167 178.5,174.5C 179.5,173.5 180.5,172.5 181.5,171.5 Z"/></g>
<g><path style="opacity:0.541" fill="#6078a3" d="M 269.5,70.5 C 267.585,70.7845 265.919,70.4511 264.5,69.5C 264.56,68.9569 264.893,68.6236 265.5,68.5C 267.026,68.9943 268.359,69.661 269.5,70.5 Z"/></g>
<g><path style="opacity:0.616" fill="#647ca6" d="M 276.5,71.5 C 274.901,71.7678 273.568,71.4345 272.5,70.5C 272.435,70.0618 272.601,69.7284 273,69.5C 274.302,70.0848 275.469,70.7515 276.5,71.5 Z"/></g>
<g><path style="opacity:0.635" fill="#6077a2" d="M 282.5,72.5 C 280.901,72.7678 279.568,72.4345 278.5,71.5C 278.435,71.0618 278.601,70.7284 279,70.5C 280.302,71.0848 281.469,71.7515 282.5,72.5 Z"/></g>
<g><path style="opacity:0.651" fill="#6177a2" d="M 287.5,73.5 C 285.901,73.7678 284.568,73.4345 283.5,72.5C 283.435,72.0618 283.601,71.7284 284,71.5C 285.302,72.0848 286.469,72.7515 287.5,73.5 Z"/></g>
<g><path style="opacity:0.569" fill="#566d9b" d="M 291.5,74.5 C 290.209,74.7373 289.209,74.404 288.5,73.5C 288.435,73.0618 288.601,72.7284 289,72.5C 289.995,73.0659 290.828,73.7326 291.5,74.5 Z"/></g>
<g><path style="opacity:0.972" fill="#dee2ec" d="M 247.5,89.5 C 248.234,90.7079 248.567,92.0413 248.5,93.5C 247.335,95.1094 246.001,95.4427 244.5,94.5C 244.167,93.8333 243.833,93.1667 243.5,92.5C 243.5,91.5 243.5,90.5 243.5,89.5C 244.833,89.5 246.167,89.5 247.5,89.5 Z"/></g>
<g><path style="opacity:0.931" fill="#ecf0f4" d="M 234.5,90.5 C 235.234,91.7079 235.567,93.0413 235.5,94.5C 234.432,95.4345 233.099,95.7678 231.5,95.5C 231.5,94.8333 231.167,94.5 230.5,94.5C 230.167,91.5 231.5,90.1667 234.5,90.5 Z"/></g>
<g><path style="opacity:0.996" fill="#cad1e0" d="M 260.5,94.5 C 259.041,94.5674 257.708,94.2341 256.5,93.5C 256.406,90.4594 257.906,88.7928 261,88.5C 263.014,90.9699 262.847,92.9699 260.5,94.5 Z"/></g>
<g><path style="opacity:0.133" fill="#33558a" d="M 235.5,94.5 C 235.567,93.0413 235.234,91.7079 234.5,90.5C 234.81,89.2617 235.31,89.2617 236,90.5C 236.765,92.0657 236.598,93.3991 235.5,94.5 Z"/></g>
<g><path style="opacity:0.996" fill="#c6cede" d="M 271.5,90.5 C 274.966,91.109 275.966,92.9423 274.5,96C 272.866,96.4935 271.199,96.6602 269.5,96.5C 269.259,94.1137 269.925,92.1137 271.5,90.5 Z"/></g>
<g><path style="opacity:0.018" fill="#183f7b" d="M 243.5,92.5 C 243.833,93.1667 244.167,93.8333 244.5,94.5C 242.576,94.2893 242.243,93.6226 243.5,92.5 Z"/></g>
<g><path style="opacity:0.137" fill="#37598d" d="M 247.5,89.5 C 248.586,89.62 249.253,90.2867 249.5,91.5C 249.457,92.4164 249.124,93.0831 248.5,93.5C 248.567,92.0413 248.234,90.7079 247.5,89.5 Z"/></g>
<g><path style="opacity:0.996" fill="#c5cdde" d="M 223.5,96.5 C 222.833,96.5 222.5,96.8333 222.5,97.5C 218.782,98.8752 217.282,97.5419 218,93.5C 221.466,91.65 223.299,92.65 223.5,96.5 Z"/></g>
<g><path style="opacity:0.075" fill="#113c79" d="M 230.5,94.5 C 231.167,94.5 231.5,94.8333 231.5,95.5C 230.922,96.547 230.256,96.3803 229.5,95C 229.728,94.6012 230.062,94.4346 230.5,94.5 Z"/></g>
<g><path style="opacity:0.026" fill="#2e4d85" d="M 256.5,93.5 C 257.708,94.2341 259.041,94.5674 260.5,94.5C 259.833,95.8333 259.167,97.1667 258.5,98.5C 257.833,98.5 257.5,98.1667 257.5,97.5C 256.766,96.2921 256.433,94.9587 256.5,93.5 Z"/></g>
<g><path style="opacity:0.996" fill="#c6cede" d="M 283.5,99.5 C 282.89,98.609 282.557,97.609 282.5,96.5C 283.975,92.6785 285.975,92.5119 288.5,96C 287.793,98.54 286.127,99.7067 283.5,99.5 Z"/></g>
<g><path style="opacity:0.015" fill="#063474" d="M 214.5,95.5 C 215.376,95.3691 216.043,95.7025 216.5,96.5C 214.192,97.8734 213.525,97.5401 214.5,95.5 Z"/></g>
<g><path style="opacity:0.122" fill="#37578c" d="M 158.5,96.5 C 158.167,97.5 157.5,98.1667 156.5,98.5C 156.5,97.1667 157.167,96.5 158.5,96.5 Z"/></g>
<g><path style="opacity:0.997" fill="#bfc8da" d="M 205.5,95.5 C 210.159,95.0146 211.492,96.848 209.5,101C 204.728,101.81 203.395,99.9771 205.5,95.5 Z"/></g>
<g><path style="opacity:0.015" fill="#063474" d="M 223.5,96.5 C 225.975,96.7467 225.975,97.4134 223.5,98.5C 222.893,98.3764 222.56,98.0431 222.5,97.5C 223.167,97.5 223.5,97.1667 223.5,96.5 Z"/></g>
<g><path style="opacity:0.007" fill="#093775" d="M 282.5,96.5 C 282.557,97.609 282.89,98.609 283.5,99.5C 281.448,98.9473 281.115,97.9473 282.5,96.5 Z"/></g>
<g><path style="opacity:0.004" fill="#335188" d="M 340.5,96.5 C 341.833,96.5 342.5,97.1667 342.5,98.5C 341.5,98.1667 340.833,97.5 340.5,96.5 Z"/></g>
<g><path style="opacity:0.008" fill="#3f5c8f" d="M 295.5,98.5 C 296.097,97.8614 296.93,97.528 298,97.5C 299.376,97.6842 300.209,98.3509 300.5,99.5C 298.958,98.6993 297.292,98.366 295.5,98.5 Z"/></g>
<g><path style="opacity:0.999" fill="#dadfea" d="M 242.5,98.5 C 242.833,99.8333 243.167,99.8333 243.5,98.5C 244.776,99.3864 244.776,100.386 243.5,101.5C 232.323,109.255 221.323,117.255 210.5,125.5C 221.205,133.943 232.038,142.276 243,150.5C 243.667,151.167 243.667,151.833 243,152.5C 241.333,153.5 239.667,154.5 238,155.5C 235.312,153.636 232.812,151.636 230.5,149.5C 230.167,148.5 229.5,147.833 228.5,147.5C 223.196,144.188 218.196,140.521 213.5,136.5C 213.027,135.094 212.027,134.427 210.5,134.5C 208.809,133.136 207.142,131.803 205.5,130.5C 205.167,129.5 204.5,128.833 203.5,128.5C 202.508,128.672 201.842,128.338 201.5,127.5C 200.89,126.609 200.557,125.609 200.5,124.5C 212.954,115.886 225.288,107.052 237.5,98C 239.265,97.3603 240.932,97.5269 242.5,98.5 Z"/></g>
<g><path style="opacity:0.999" fill="#dce0eb" d="M 257.5,97.5 C 257.5,98.1667 257.833,98.5 258.5,98.5C 260.882,99.3507 262.882,100.684 264.5,102.5C 264.833,103.5 265.5,104.167 266.5,104.5C 272.449,108.118 278.116,112.118 283.5,116.5C 283.833,117.5 284.5,118.167 285.5,118.5C 288.615,120.231 291.615,122.231 294.5,124.5C 295.833,125.5 295.833,126.5 294.5,127.5C 282.429,136.911 270.095,145.911 257.5,154.5C 256.391,154.443 255.391,154.11 254.5,153.5C 252.13,153.017 251.463,151.851 252.5,150C 263.924,142.3 274.924,134.133 285.5,125.5C 285.167,124.5 284.5,123.833 283.5,123.5C 273.214,116.546 263.214,109.212 253.5,101.5C 253.5,100.833 253.5,100.167 253.5,99.5C 253.5,99.1667 253.5,98.8333 253.5,98.5C 254.708,97.7659 256.041,97.4326 257.5,97.5 Z"/></g>
<g><path style="opacity:0.01" fill="#063474" d="M 288.5,98.5 C 289.773,99.0768 289.773,99.7435 288.5,100.5C 287.537,100.03 287.537,99.3635 288.5,98.5 Z"/></g>
<g><path style="opacity:0.997" fill="#e3e7ef" d="M 295.5,98.5 C 297.292,98.366 298.958,98.6993 300.5,99.5C 300.567,100.959 300.234,102.292 299.5,103.5C 298.041,103.567 296.708,103.234 295.5,102.5C 295.5,101.167 295.5,99.8333 295.5,98.5 Z"/></g>
<g><path style="opacity:0.531" fill="#657aa4" d="M 253.5,99.5 C 253.5,100.167 253.5,100.833 253.5,101.5C 250.833,100.833 250.833,100.167 253.5,99.5 Z"/></g>
<g><path style="opacity:0.006" fill="#264680" d="M 295.5,98.5 C 295.5,99.8333 295.5,101.167 295.5,102.5C 293.641,102.539 292.308,101.706 291.5,100C 292.744,99.5439 293.577,100.044 294,101.5C 294.232,100.263 294.732,99.2625 295.5,98.5 Z"/></g>
<g><path style="opacity:0.996" fill="#c4cddd" d="M 194.5,99.5 C 197.966,100.109 198.966,101.942 197.5,105C 195.866,105.494 194.199,105.66 192.5,105.5C 192.259,103.114 192.925,101.114 194.5,99.5 Z"/></g>
<g><path style="opacity:0.016" fill="#345289" d="M 264.5,102.5 C 265.833,102.5 266.5,103.167 266.5,104.5C 265.5,104.167 264.833,103.5 264.5,102.5 Z"/></g>
<g><path style="opacity:0.016" fill="#415b8f" d="M 348.5,102.5 C 349.833,102.5 350.5,103.167 350.5,104.5C 349.5,104.167 348.833,103.5 348.5,102.5 Z"/></g>
<g><path style="opacity:0.998" fill="#c6cede" d="M 308.5,102.5 C 312.35,102.701 313.35,104.534 311.5,108C 309.045,108.772 307.378,107.939 306.5,105.5C 306.942,104.261 307.609,103.261 308.5,102.5 Z"/></g>
<g><path style="opacity:0.455" fill="#496495" d="M 185.5,106.5 C 184.167,106.5 182.833,106.5 181.5,106.5C 182.833,103.833 184.167,103.833 185.5,106.5 Z"/></g>
<g><path style="opacity:0.998" fill="#c8d0df" d="M 181.5,106.5 C 182.833,106.5 184.167,106.5 185.5,106.5C 187.177,110.986 185.677,112.319 181,110.5C 180.235,108.934 180.402,107.601 181.5,106.5 Z"/></g>
<g><path style="opacity:0.997" fill="#c6cfde" d="M 319.5,108.5 C 323.485,108.629 324.818,110.463 323.5,114C 318.728,114.81 317.395,112.977 319.5,108.5 Z"/></g>
<g><path style="opacity:0.999" fill="#c5cdde" d="M 170.5,112.5 C 176.175,112.86 176.842,114.86 172.5,118.5C 169.531,117.235 168.865,115.235 170.5,112.5 Z"/></g>
<g><path style="opacity:0.847" fill="#9aa6c4" d="M 140.5,111.5 C 139.089,113.914 137.089,115.581 134.5,116.5C 135.911,114.086 137.911,112.419 140.5,111.5 Z"/></g>
<g><path style="opacity:0.004" fill="#37548a" d="M 283.5,116.5 C 284.833,116.5 285.5,117.167 285.5,118.5C 284.5,118.167 283.833,117.5 283.5,116.5 Z"/></g>
<g><path style="opacity:0.996" fill="#c0c8da" d="M 331.5,115.5 C 336.543,117.467 336.71,119.8 332,122.5C 328.887,120.324 328.72,117.991 331.5,115.5 Z"/></g>
<g><path style="opacity:0.018" fill="#083674" d="M 164.5,121.5 C 163.833,121.5 163.5,121.167 163.5,120.5C 164.251,119.427 165.251,119.26 166.5,120C 165.584,120.278 164.918,120.778 164.5,121.5 Z"/></g>
<g><path style="opacity:0.998" fill="#c5cede" d="M 163.5,120.5 C 163.5,121.167 163.833,121.5 164.5,121.5C 164.835,124.729 163.502,126.229 160.5,126C 157.413,122.118 158.413,120.284 163.5,120.5 Z"/></g>
<g><path style="opacity:0.008" fill="#2d4d85" d="M 283.5,123.5 C 284.5,123.833 285.167,124.5 285.5,125.5C 284.167,125.5 283.5,124.833 283.5,123.5 Z"/></g>
<g><path style="opacity:0.106" fill="#204780" d="M 200.5,124.5 C 200.557,125.609 200.89,126.609 201.5,127.5C 199.448,126.947 199.115,125.947 200.5,124.5 Z"/></g>
<g><path style="opacity:0.997" fill="#cbd3e1" d="M 340.5,124.5 C 344.909,123.899 346.242,125.566 344.5,129.5C 340.317,130.309 338.984,128.642 340.5,124.5 Z"/></g>
<g><path style="opacity:0.216" fill="#416092" d="M 153.5,129.5 C 152.5,129.5 151.5,129.5 150.5,129.5C 152.043,127.443 153.043,127.443 153.5,129.5 Z"/></g>
<g><path style="opacity:0.996" fill="#c9d0e0" d="M 150.5,129.5 C 151.5,129.5 152.5,129.5 153.5,129.5C 156.13,131.784 155.63,133.451 152,134.5C 148.43,133.417 147.93,131.75 150.5,129.5 Z"/></g>
<g><path style="opacity:0.004" fill="#345289" d="M 203.5,128.5 C 204.5,128.833 205.167,129.5 205.5,130.5C 204.167,130.5 203.5,129.833 203.5,128.5 Z"/></g>
<g><path style="opacity:0.353" fill="#546d9b" d="M 376.5,129.5 C 377.906,129.973 378.573,130.973 378.5,132.5C 377.094,132.027 376.427,131.027 376.5,129.5 Z"/></g>
<g><path style="opacity:0.997" fill="#c5cede" d="M 349.5,133.5 C 354.159,133.015 355.492,134.848 353.5,139C 349.266,139.267 347.933,137.434 349.5,133.5 Z"/></g>
<g><path style="opacity:0.251" fill="#425f91" d="M 210.5,134.5 C 212.027,134.427 213.027,135.094 213.5,136.5C 211.973,136.573 210.973,135.906 210.5,134.5 Z"/></g>
<g><path style="opacity:0.012" fill="#355389" d="M 380.5,135.5 C 381.833,135.5 382.5,136.167 382.5,137.5C 381.5,137.167 380.833,136.5 380.5,135.5 Z"/></g>
<g><path style="opacity:0.996" fill="#c2cadb" d="M 144.5,138.5 C 147.278,142.24 146.278,144.073 141.5,144C 139.219,142.518 139.219,140.851 141.5,139C 142.448,138.517 143.448,138.351 144.5,138.5 Z"/></g>
<g><path style="opacity:0.275" fill="#4a6595" d="M 382.5,137.5 C 383.906,137.973 384.573,138.973 384.5,140.5C 383.094,140.027 382.427,139.027 382.5,137.5 Z"/></g>
<g><path style="opacity:0.271" fill="#506a9a" d="M 384.5,140.5 C 385.906,140.973 386.573,141.973 386.5,143.5C 385.094,143.027 384.427,142.027 384.5,140.5 Z"/></g>
<g><path style="opacity:0.996" fill="#c8d1e0" d="M 358.5,143.5 C 363.041,143.815 364.041,145.649 361.5,149C 357.537,149.118 356.537,147.284 358.5,143.5 Z"/></g>
<g><path style="opacity:0.188" fill="#3e5b8f" d="M 386.5,143.5 C 387.906,143.973 388.573,144.973 388.5,146.5C 387.094,146.027 386.427,145.027 386.5,143.5 Z"/></g>
<g><path style="opacity:0.004" fill="#2c4d85" d="M 228.5,147.5 C 229.5,147.833 230.167,148.5 230.5,149.5C 229.167,149.5 228.5,148.833 228.5,147.5 Z"/></g>
<g><path style="opacity:0.997" fill="#c8d0df" d="M 133.5,148.5 C 138.041,148.815 139.041,150.649 136.5,154C 135.207,154.49 133.873,154.657 132.5,154.5C 132.325,152.379 132.659,150.379 133.5,148.5 Z"/></g>
<g><path style="opacity:0.235" fill="#4e6898" d="M 390.5,150.5 C 391.906,150.973 392.573,151.973 392.5,153.5C 391.094,153.027 390.427,152.027 390.5,150.5 Z"/></g>
<g><path style="opacity:1" fill="#f5f6f9" d="M 372.5,160.5 C 372.5,162.5 372.5,164.5 372.5,166.5C 373.959,166.433 375.292,166.766 376.5,167.5C 377.507,169.268 376.841,170.601 374.5,171.5C 374.167,174.333 373.833,177.167 373.5,180C 374.039,185.84 374.206,191.674 374,197.5C 369.463,201.401 364.963,201.401 360.5,197.5C 360.768,195.901 360.434,194.568 359.5,193.5C 359.5,193.167 359.5,192.833 359.5,192.5C 359.768,190.901 359.434,189.568 358.5,188.5C 357.89,187.609 357.557,186.609 357.5,185.5C 357.706,182.505 357.04,179.838 355.5,177.5C 352.781,171.461 348.114,167.794 341.5,166.5C 335.021,165.509 328.354,165.176 321.5,165.5C 321.168,203.337 321.502,241.004 322.5,278.5C 321.985,284.98 324.651,289.48 330.5,292C 334.528,292.392 338.528,292.892 342.5,293.5C 343.851,297.025 343.184,300.191 340.5,303C 328.493,303.456 316.493,303.29 304.5,302.5C 295.779,302.775 287.113,302.442 278.5,301.5C 277.37,298.863 277.37,296.197 278.5,293.5C 284.061,293.237 289.394,292.07 294.5,290C 297.131,286.658 298.464,282.824 298.5,278.5C 299.498,241.004 299.832,203.337 299.5,165.5C 292.313,165.175 285.313,165.509 278.5,166.5C 273.558,167.556 269.725,170.222 267,174.5C 265.1,180.519 263.267,186.519 261.5,192.5C 260.566,193.568 260.232,194.901 260.5,196.5C 267.144,217.538 267.144,238.538 260.5,259.5C 259.326,260.514 258.66,261.847 258.5,263.5C 257.101,268.634 254.435,272.967 250.5,276.5C 249.094,276.973 248.427,277.973 248.5,279.5C 240.91,287.774 231.91,293.107 221.5,295.5C 220.508,295.328 219.842,295.662 219.5,296.5C 218.833,296.5 218.167,296.5 217.5,296.5C 216.209,296.263 215.209,296.596 214.5,297.5C 209.519,298.166 204.519,298.832 199.5,299.5C 189.188,298.601 178.855,297.934 168.5,297.5C 162.833,296.167 157.167,296.167 151.5,297.5C 148.998,298.779 146.498,298.779 144,297.5C 143.502,294.518 143.335,291.518 143.5,288.5C 144.833,287.833 146.167,287.167 147.5,286.5C 148.5,286.5 149.5,286.5 150.5,286.5C 153.167,286.5 155.833,286.5 158.5,286.5C 158.5,285.167 158.5,283.833 158.5,282.5C 159.624,249.183 159.791,215.849 159,182.5C 158.545,179.146 158.045,175.813 157.5,172.5C 155.5,172.167 153.5,171.833 151.5,171.5C 150.432,170.566 149.099,170.232 147.5,170.5C 146.833,170.5 146.167,170.5 145.5,170.5C 144.449,169.778 143.782,168.778 143.5,167.5C 143.5,167.167 143.5,166.833 143.5,166.5C 143.94,164.156 144.94,162.156 146.5,160.5C 156.833,160.5 167.167,160.5 177.5,160.5C 180.059,160.802 182.393,160.468 184.5,159.5C 192.845,158.308 201.178,158.308 209.5,159.5C 210.919,160.451 212.585,160.784 214.5,160.5C 226.884,161.609 237.384,166.609 246,175.5C 247.174,170.25 247.841,164.916 248,159.5C 248.816,158.177 249.983,157.511 251.5,157.5C 289.848,158.161 327.848,157.494 365.5,155.5C 366.601,154.402 367.934,154.235 369.5,155C 370.758,156.741 371.758,158.574 372.5,160.5 Z M 181.5,171.5 C 182.167,171.5 182.833,171.5 183.5,171.5C 191.326,171.751 198.992,171.751 206.5,171.5C 207.167,171.5 207.833,171.5 208.5,171.5C 210.214,172.738 212.214,173.405 214.5,173.5C 218.752,174.959 222.752,176.959 226.5,179.5C 226.973,180.906 227.973,181.573 229.5,181.5C 231.866,184.857 234.199,188.19 236.5,191.5C 236.932,192.71 237.599,193.71 238.5,194.5C 239.972,198.917 241.638,203.25 243.5,207.5C 243.062,207.435 242.728,207.601 242.5,208C 243.066,208.995 243.733,209.828 244.5,210.5C 244.5,210.833 244.5,211.167 244.5,211.5C 243.557,213.001 243.891,214.335 245.5,215.5C 248.323,236.279 243.989,255.279 232.5,272.5C 229.833,274.5 227.5,276.833 225.5,279.5C 219.95,282.74 213.95,284.907 207.5,286C 198.506,286.5 189.506,286.666 180.5,286.5C 179.976,284.694 179.309,283.028 178.5,281.5C 178.5,245.833 178.5,210.167 178.5,174.5C 179.5,173.5 180.5,172.5 181.5,171.5 Z"/></g>
<g><path style="opacity:0.254" fill="#476897" d="M 254.5,153.5 C 255.391,154.11 256.391,154.443 257.5,154.5C 257.918,155.222 258.584,155.722 259.5,156C 276,156.167 292.5,156.333 309,156.5C 328.025,156.452 346.858,156.119 365.5,155.5C 327.848,157.494 289.848,158.161 251.5,157.5C 252.789,156.363 253.789,155.03 254.5,153.5 Z"/></g>
<g><path style="opacity:0.549" fill="#5f79a3" d="M 184.5,159.5 C 182.393,160.468 180.059,160.802 177.5,160.5C 179.556,159.784 181.723,159.117 184,158.5C 184.399,158.728 184.565,159.062 184.5,159.5 Z"/></g>
<g><path style="opacity:0.514" fill="#5d75a1" d="M 214.5,160.5 C 212.585,160.784 210.919,160.451 209.5,159.5C 209.56,158.957 209.893,158.624 210.5,158.5C 212.026,158.994 213.359,159.661 214.5,160.5 Z"/></g>
<g><path style="opacity:0.996" fill="#c8cfdf" d="M 126.5,159.5 C 129.114,159.277 130.781,160.444 131.5,163C 130.045,165.016 128.045,165.849 125.5,165.5C 125.325,163.379 125.659,161.379 126.5,159.5 Z"/></g>
<g><path style="opacity:0.875" fill="#9cadc7" d="M 146.5,160.5 C 144.94,162.156 143.94,164.156 143.5,166.5C 143.5,164.167 143.5,161.833 143.5,159.5C 144.791,159.263 145.791,159.596 146.5,160.5 Z"/></g>
<g><path style="opacity:0.749" fill="#7e92b5" d="M 372.5,160.5 C 373.451,161.919 373.784,163.585 373.5,165.5C 375.179,165.285 376.179,165.952 376.5,167.5C 375.292,166.766 373.959,166.433 372.5,166.5C 372.5,164.5 372.5,162.5 372.5,160.5 Z"/></g>
<g><path style="opacity:0.432" fill="#718baf" d="M 278.5,166.5 C 285.313,165.509 292.313,165.175 299.5,165.5C 299.832,203.337 299.498,241.004 298.5,278.5C 298.5,241.167 298.5,203.833 298.5,166.5C 291.833,166.5 285.167,166.5 278.5,166.5 Z"/></g>
<g><path style="opacity:0.326" fill="#5978a2" d="M 341.5,166.5 C 335.167,166.5 328.833,166.5 322.5,166.5C 322.5,203.833 322.5,241.167 322.5,278.5C 321.502,241.004 321.168,203.337 321.5,165.5C 328.354,165.176 335.021,165.509 341.5,166.5 Z"/></g>
<g><path style="opacity:0.082" fill="#38538a" d="M 398.5,166.5 C 399.906,166.973 400.573,167.973 400.5,169.5C 399.094,169.027 398.427,168.027 398.5,166.5 Z"/></g>
<g><path style="opacity:0.573" fill="#576f9d" d="M 143.5,167.5 C 143.782,168.778 144.449,169.778 145.5,170.5C 144.603,171.598 143.77,171.598 143,170.5C 142.26,169.251 142.427,168.251 143.5,167.5 Z"/></g>
<g><path style="opacity:0.506" fill="#546e9c" d="M 147.5,170.5 C 149.099,170.232 150.432,170.566 151.5,171.5C 151.565,171.938 151.399,172.272 151,172.5C 149.698,171.915 148.531,171.249 147.5,170.5 Z"/></g>
<g><path style="opacity:0.251" fill="#506b9a" d="M 183.5,171.5 C 191.068,170.188 198.735,170.188 206.5,171.5C 198.992,171.751 191.326,171.751 183.5,171.5 Z"/></g>
<g><path style="opacity:0.114" fill="#264a83" d="M 181.5,171.5 C 180.5,172.5 179.5,173.5 178.5,174.5C 178.5,173.5 178.5,172.5 178.5,171.5C 179.5,171.5 180.5,171.5 181.5,171.5 Z"/></g>
<g><path style="opacity:0.722" fill="#687da7" d="M 208.5,171.5 C 210.898,171.259 212.898,171.926 214.5,173.5C 212.214,173.405 210.214,172.738 208.5,171.5 Z"/></g>
<g><path style="opacity:0.998" fill="#cad2e1" d="M 120.5,171.5 C 124.521,171.244 125.854,172.91 124.5,176.5C 119.733,177.899 118.4,176.232 120.5,171.5 Z"/></g>
<g><path style="opacity:0.997" fill="#c0c9db" d="M 377.5,177.5 C 382.159,177.015 383.492,178.848 381.5,183C 377.132,183.439 375.799,181.606 377.5,177.5 Z"/></g>
<g><path style="opacity:0.737" fill="#7a8ab0" d="M 226.5,179.5 C 228.027,179.427 229.027,180.094 229.5,181.5C 227.973,181.573 226.973,180.906 226.5,179.5 Z"/></g>
<g><path style="opacity:0.012" fill="#264780" d="M 355.5,177.5 C 357.04,179.838 357.706,182.505 357.5,185.5C 356.232,183.095 355.565,180.428 355.5,177.5 Z"/></g>
<g><path style="opacity:0.998" fill="#c8d1e0" d="M 115.5,183.5 C 119.225,183.537 120.558,185.204 119.5,188.5C 114.733,189.899 113.4,188.232 115.5,183.5 Z"/></g>
<g><path style="opacity:0.616" fill="#5d75a0" d="M 358.5,188.5 C 359.434,189.568 359.768,190.901 359.5,192.5C 358.751,191.469 358.085,190.302 357.5,189C 357.728,188.601 358.062,188.435 358.5,188.5 Z"/></g>
<g><path style="opacity:0.866" fill="#c8d0df" d="M 382.5,189.5 C 387.778,191.096 387.778,193.096 382.5,195.5C 379.86,193.465 379.86,191.465 382.5,189.5 Z"/></g>
<g><path style="opacity:0.914" fill="#818fb4" d="M 236.5,191.5 C 238.048,191.821 238.715,192.821 238.5,194.5C 237.599,193.71 236.932,192.71 236.5,191.5 Z"/></g>
<g><path style="opacity:0.573" fill="#7287ad" d="M 261.5,192.5 C 262.443,194.001 262.109,195.335 260.5,196.5C 260.232,194.901 260.566,193.568 261.5,192.5 Z"/></g>
<g><path style="opacity:0.545" fill="#667ba6" d="M 359.5,193.5 C 360.434,194.568 360.768,195.901 360.5,197.5C 358.891,196.335 358.557,195.001 359.5,193.5 Z"/></g>
<g><path style="opacity:0.533" fill="#7086ad" d="M 406.5,189.5 C 407.924,191.515 408.59,193.848 408.5,196.5C 407.076,194.485 406.41,192.152 406.5,189.5 Z"/></g>
<g><path style="opacity:0.999" fill="#bec8da" d="M 111.5,196.5 C 116.159,196.015 117.492,197.848 115.5,202C 111.266,202.267 109.933,200.434 111.5,196.5 Z"/></g>
<g><path style="opacity:0.998" fill="#d1d7e4" d="M 385.5,203.5 C 386.959,203.433 388.292,203.766 389.5,204.5C 389.915,206.948 388.915,208.281 386.5,208.5C 383.281,207.134 382.948,205.467 385.5,203.5 Z"/></g>
<g><path style="opacity:0.4" fill="#647ca6" d="M 385.5,203.5 C 385.917,202.876 386.584,202.543 387.5,202.5C 388.713,202.747 389.38,203.414 389.5,204.5C 388.292,203.766 386.959,203.433 385.5,203.5 Z"/></g>
<g><path style="opacity:0.6" fill="#5e76a1" d="M 243.5,207.5 C 244.404,208.209 244.737,209.209 244.5,210.5C 243.733,209.828 243.066,208.995 242.5,208C 242.728,207.601 243.062,207.435 243.5,207.5 Z"/></g>
<g><path style="opacity:0.997" fill="#c4ccdd" d="M 108.5,209.5 C 114.936,209.171 115.936,211.171 111.5,215.5C 109.077,214.288 108.077,212.288 108.5,209.5 Z"/></g>
<g><path style="opacity:0.522" fill="#6981a9" d="M 244.5,211.5 C 245.434,212.568 245.768,213.901 245.5,215.5C 243.891,214.335 243.557,213.001 244.5,211.5 Z"/></g>
<g><path style="opacity:0.998" fill="#bdc6d9" d="M 386.5,215.5 C 391.159,215.015 392.492,216.848 390.5,221C 385.728,221.81 384.395,219.977 386.5,215.5 Z"/></g>
<g><path style="opacity:0.998" fill="#c7cfdf" d="M 107.5,222.5 C 109.167,222.5 110.833,222.5 112.5,222.5C 112.563,229.198 110.563,230.031 106.5,225C 107.252,224.329 107.586,223.496 107.5,222.5 Z"/></g>
<g><path style="opacity:1" fill="#c9cfdf" d="M 391.5,230.5 C 391.5,231.5 391.5,232.5 391.5,233.5C 388.955,235.023 386.955,234.357 385.5,231.5C 387.34,228.189 389.34,227.856 391.5,230.5 Z"/></g>
<g><path style="opacity:0.282" fill="#37588c" d="M 391.5,230.5 C 394.167,231.5 394.167,232.5 391.5,233.5C 391.5,232.5 391.5,231.5 391.5,230.5 Z"/></g>
<g><path style="opacity:0.998" fill="#d0d7e4" d="M 107.5,235.5 C 109.167,235.5 110.833,235.5 112.5,235.5C 112.66,237.199 112.494,238.866 112,240.5C 110.667,241.833 109.333,241.833 108,240.5C 107.506,238.866 107.34,237.199 107.5,235.5 Z"/></g>
<g><path style="opacity:0.998" fill="#bbc4d8" d="M 387.5,241.5 C 389.844,241.506 391.178,242.673 391.5,245C 389.551,249.634 387.551,249.634 385.5,245C 385.978,243.697 386.645,242.531 387.5,241.5 Z"/></g>
<g><path style="opacity:0.999" fill="#c9d1e0" d="M 109.5,248.5 C 114.041,248.815 115.041,250.649 112.5,254C 108.537,254.118 107.537,252.284 109.5,248.5 Z"/></g>
<g><path style="opacity:0.376" fill="#607aa4" d="M 401.5,248.5 C 401.795,250.735 401.461,252.735 400.5,254.5C 400.062,254.565 399.728,254.399 399.5,254C 400.109,252.052 400.776,250.218 401.5,248.5 Z"/></g>
<g><path style="opacity:0.995" fill="#c4ccdd" d="M 386.5,254.5 C 390.285,256.44 390.452,258.773 387,261.5C 382.547,259.345 382.38,257.012 386.5,254.5 Z"/></g>
<g><path style="opacity:0.998" fill="#c4cddd" d="M 111.5,261.5 C 115.909,260.899 117.242,262.566 115.5,266.5C 111.317,267.309 109.984,265.642 111.5,261.5 Z"/></g>
<g><path style="opacity:0.098" fill="#39578c" d="M 260.5,259.5 C 260.771,261.38 260.104,262.713 258.5,263.5C 258.66,261.847 259.326,260.514 260.5,259.5 Z"/></g>
<g><path style="opacity:1" fill="#c5cede" d="M 382.5,267.5 C 386.35,267.701 387.35,269.534 385.5,273C 380.676,273.183 379.676,271.35 382.5,267.5 Z"/></g>
<g><path style="opacity:0.01" fill="#2c4b84" d="M 408.5,268.5 C 408.88,270.698 408.213,272.365 406.5,273.5C 406.796,271.597 407.463,269.93 408.5,268.5 Z"/></g>
<g><path style="opacity:0.49" fill="#6177a3" d="M 91.5,270.5 C 92.404,271.209 92.7373,272.209 92.5,273.5C 90.6182,272.779 90.2848,271.779 91.5,270.5 Z"/></g>
<g><path style="opacity:0.997" fill="#c7d0df" d="M 116.5,273.5 C 119.966,274.109 120.966,275.942 119.5,279C 116.763,280.08 115.096,279.246 114.5,276.5C 114.942,275.261 115.609,274.261 116.5,273.5 Z"/></g>
<g><path style="opacity:0.004" fill="#3b578c" d="M 92.5,274.5 C 93.4582,276.302 94.1249,278.302 94.5,280.5C 92.7202,279.01 92.0535,277.01 92.5,274.5 Z"/></g>
<g><path style="opacity:0.847" fill="#919fbe" d="M 232.5,272.5 C 231.167,275.833 228.833,278.167 225.5,279.5C 227.5,276.833 229.833,274.5 232.5,272.5 Z"/></g>
<g><path style="opacity:0.008" fill="#325087" d="M 250.5,276.5 C 250.573,278.027 249.906,279.027 248.5,279.5C 248.427,277.973 249.094,276.973 250.5,276.5 Z"/></g>
<g><path style="opacity:0.018" fill="#314f86" d="M 406.5,275.5 C 406.88,277.698 406.213,279.365 404.5,280.5C 404.796,278.597 405.463,276.93 406.5,275.5 Z"/></g>
<g><path style="opacity:0.999" fill="#bcc5d8" d="M 378.5,279.5 C 380.844,279.506 382.178,280.673 382.5,283C 380.551,287.634 378.551,287.634 376.5,283C 376.978,281.697 377.645,280.531 378.5,279.5 Z"/></g>
<g><path style="opacity:0.01" fill="#3b578c" d="M 404.5,281.5 C 404.88,283.698 404.213,285.365 402.5,286.5C 402.796,284.597 403.463,282.93 404.5,281.5 Z"/></g>
<g><path style="opacity:0.165" fill="#2e5389" d="M 178.5,281.5 C 179.309,283.028 179.976,284.694 180.5,286.5C 178.744,285.448 178.077,283.781 178.5,281.5 Z"/></g>
<g><path style="opacity:0.953" fill="#96a7c3" d="M 158.5,282.5 C 158.5,283.833 158.5,285.167 158.5,286.5C 155.833,286.5 153.167,286.5 150.5,286.5C 152.607,285.532 154.941,285.198 157.5,285.5C 157.263,284.209 157.596,283.209 158.5,282.5 Z"/></g>
<g><path style="opacity:0.996" fill="#bfc7da" d="M 121.5,285.5 C 125.951,287.367 126.284,289.7 122.5,292.5C 118.99,290.573 118.656,288.24 121.5,285.5 Z"/></g>
<g><path style="opacity:0.647" fill="#738aaf" d="M 147.5,286.5 C 146.167,287.167 144.833,287.833 143.5,288.5C 142.957,288.44 142.624,288.107 142.5,287.5C 144.045,286.548 145.712,286.215 147.5,286.5 Z"/></g>
<g><path style="opacity:0.998" fill="#bec6d9" d="M 373.5,291.5 C 378.543,293.467 378.71,295.8 374,298.5C 370.887,296.324 370.72,293.991 373.5,291.5 Z"/></g>
<g><path style="opacity:0.216" fill="#466394" d="M 221.5,295.5 C 220.994,297.105 220.327,297.439 219.5,296.5C 219.842,295.662 220.508,295.328 221.5,295.5 Z"/></g>
<g><path style="opacity:0.243" fill="#6781a8" d="M 151.5,297.5 C 157.167,296.167 162.833,296.167 168.5,297.5C 163.082,297.622 157.416,297.622 151.5,297.5 Z"/></g>
<g><path style="opacity:0.447" fill="#647ba5" d="M 217.5,296.5 C 216.828,297.267 215.995,297.934 215,298.5C 214.601,298.272 214.435,297.938 214.5,297.5C 215.209,296.596 216.209,296.263 217.5,296.5 Z"/></g>
<g><path style="opacity:0.996" fill="#d2d9e5" d="M 126.5,297.5 C 129.114,297.277 130.781,298.444 131.5,301C 126.464,304.802 124.798,303.635 126.5,297.5 Z"/></g>
<g><path style="opacity:0.557" fill="#6981a9" d="M 278.5,301.5 C 287.113,302.442 295.779,302.775 304.5,302.5C 296.344,303.657 288.01,303.823 279.5,303C 278.944,302.617 278.611,302.117 278.5,301.5 Z"/></g>
<g><path style="opacity:0.997" fill="#c0c9db" d="M 365.5,303.5 C 370.159,303.015 371.492,304.848 369.5,309C 365.135,309.446 363.802,307.613 365.5,303.5 Z"/></g>
<g><path style="opacity:0.996" fill="#c9d1e0" d="M 133.5,308.5 C 137.225,308.537 138.558,310.204 137.5,313.5C 132.733,314.899 131.4,313.232 133.5,308.5 Z"/></g>
<g><path style="opacity:0.043" fill="#2e4c85" d="M 105.5,308.5 C 106.906,308.973 107.573,309.973 107.5,311.5C 106.094,311.027 105.427,310.027 105.5,308.5 Z"/></g>
<g><path style="opacity:0.996" fill="#c5cddd" d="M 358.5,314.5 C 360.948,314.01 362.615,314.843 363.5,317C 362.831,318.847 361.497,320.014 359.5,320.5C 357.261,318.867 356.928,316.867 358.5,314.5 Z"/></g>
<g><path style="opacity:0.008" fill="#274681" d="M 109.5,315.5 C 110.906,315.973 111.573,316.973 111.5,318.5C 110.094,318.027 109.427,317.027 109.5,315.5 Z"/></g>
<g><path style="opacity:0.998" fill="#d8dde8" d="M 251.5,339.5 C 250.566,340.568 250.232,341.901 250.5,343.5C 249.145,349.586 247.478,355.586 245.5,361.5C 244.596,362.209 244.263,363.209 244.5,364.5C 242.833,364.5 241.167,364.5 239.5,364.5C 239.923,362.219 239.256,360.552 237.5,359.5C 233.833,356.833 230.167,354.167 226.5,351.5C 226.167,350.5 225.5,349.833 224.5,349.5C 220.293,347.565 216.627,344.898 213.5,341.5C 213.167,340.833 212.833,340.167 212.5,339.5C 222.511,332.066 232.678,324.732 243,317.5C 245.581,318.39 246.914,320.057 247,322.5C 246.667,322.167 246.333,321.833 246,321.5C 237.5,327.667 229,333.833 220.5,340C 227,345.167 233.5,350.333 240,355.5C 240.483,354.552 240.649,353.552 240.5,352.5C 241.404,351.791 241.737,350.791 241.5,349.5C 244.697,338.572 247.697,327.572 250.5,316.5C 252.527,316.338 254.527,316.505 256.5,317C 266.975,324.641 277.309,332.475 287.5,340.5C 277.654,348.583 267.321,355.917 256.5,362.5C 254.734,361.909 253.067,361.076 251.5,360C 260.782,353.719 269.782,347.052 278.5,340C 271.063,334.863 263.896,329.363 257,323.5C 254.92,328.353 253.087,333.687 251.5,339.5 Z"/></g>
<g><path style="opacity:0.996" fill="#c3cbdc" d="M 142.5,318.5 C 147.116,320.394 147.45,322.728 143.5,325.5C 138.802,323.546 138.469,321.213 142.5,318.5 Z"/></g>
<g><path style="opacity:0.008" fill="#2f4f86" d="M 385.5,321.5 C 385.5,322.833 384.833,323.5 383.5,323.5C 383.833,322.5 384.5,321.833 385.5,321.5 Z"/></g>
<g><path style="opacity:0.996" fill="#bbc4d8" d="M 351.5,323.5 C 355.478,325.794 355.478,328.127 351.5,330.5C 347.543,328.075 347.543,325.742 351.5,323.5 Z"/></g>
<g><path style="opacity:0.997" fill="#c9d1e0" d="M 150.5,328.5 C 154.35,328.701 155.35,330.534 153.5,334C 148.722,334.073 147.722,332.24 150.5,328.5 Z"/></g>
<g><path style="opacity:0.995" fill="#c3ccdd" d="M 340.5,333.5 C 345.587,333.284 346.587,335.118 343.5,339C 339.537,339.118 338.537,337.284 340.5,333.5 Z"/></g>
<g><path style="opacity:0.998" fill="#c1cadb" d="M 159.5,337.5 C 164.159,337.015 165.492,338.848 163.5,343C 159.266,343.267 157.933,341.434 159.5,337.5 Z"/></g>
<g><path style="opacity:0.012" fill="#2a4882" d="M 212.5,339.5 C 212.833,340.167 213.167,340.833 213.5,341.5C 211.576,341.289 211.243,340.623 212.5,339.5 Z"/></g>
<g><path style="opacity:0.008" fill="#325188" d="M 370.5,340.5 C 370.5,341.833 369.833,342.5 368.5,342.5C 368.833,341.5 369.5,340.833 370.5,340.5 Z"/></g>
<g><path style="opacity:0.008" fill="#355188" d="M 251.5,339.5 C 251.938,339.435 252.272,339.601 252.5,340C 251.915,341.302 251.249,342.469 250.5,343.5C 250.232,341.901 250.566,340.568 251.5,339.5 Z"/></g>
<g><path style="opacity:0.997" fill="#c7cfdf" d="M 330.5,341.5 C 335.158,341.653 336.158,343.486 333.5,347C 329.537,347.118 328.537,345.284 330.5,341.5 Z"/></g>
<g><path style="opacity:0.996" fill="#c3cbdc" d="M 171.5,344.5 C 176.543,346.467 176.71,348.8 172,351.5C 169.005,349.243 168.839,346.909 171.5,344.5 Z"/></g>
<g><path style="opacity:0.999" fill="#c8d0df" d="M 319.5,348.5 C 323.225,348.537 324.558,350.204 323.5,353.5C 318.733,354.899 317.4,353.232 319.5,348.5 Z"/></g>
<g><path style="opacity:0.012" fill="#2a4c84" d="M 224.5,349.5 C 225.5,349.833 226.167,350.5 226.5,351.5C 225.167,351.5 224.5,350.833 224.5,349.5 Z"/></g>
<g><path style="opacity:0.106" fill="#143e7a" d="M 241.5,349.5 C 241.737,350.791 241.404,351.791 240.5,352.5C 240.062,352.565 239.728,352.399 239.5,352C 240.066,351.005 240.733,350.172 241.5,349.5 Z"/></g>
<g><path style="opacity:0.998" fill="#c4ccdd" d="M 182.5,351.5 C 185.966,352.109 186.966,353.942 185.5,357C 182.763,358.08 181.096,357.246 180.5,354.5C 180.942,353.261 181.609,352.261 182.5,351.5 Z"/></g>
<g><path style="opacity:0.997" fill="#c1cadb" d="M 308.5,354.5 C 312.35,354.701 313.35,356.534 311.5,360C 306.289,360.546 305.289,358.713 308.5,354.5 Z"/></g>
<g><path style="opacity:0.996" fill="#c2cbdc" d="M 193.5,357.5 C 197.527,357.26 198.861,358.926 197.5,362.5C 192.732,363.889 191.398,362.223 193.5,357.5 Z"/></g>
<g><path style="opacity:0.004" fill="#345389" d="M 352.5,357.5 C 352.5,358.833 351.833,359.5 350.5,359.5C 350.833,358.5 351.5,357.833 352.5,357.5 Z"/></g>
<g><path style="opacity:0.997" fill="#c0c9db" d="M 301.5,361.5 C 300.576,365.269 298.41,366.269 295,364.5C 295.176,359.382 297.342,358.382 301.5,361.5 Z"/></g>
<g><path style="opacity:0.996" fill="#ccd3e2" d="M 205.5,362.5 C 207.167,362.5 208.833,362.5 210.5,362.5C 210.5,364.167 210.5,365.833 210.5,367.5C 205.58,368.585 203.913,366.918 205.5,362.5 Z"/></g>
<g><path style="opacity:0.208" fill="#405d90" d="M 153.5,363.5 C 155.027,363.427 156.027,364.094 156.5,365.5C 154.973,365.573 153.973,364.906 153.5,363.5 Z"/></g>
<g><path style="opacity:0.42" fill="#6b86ac" d="M 237.5,359.5 C 239.256,360.552 239.923,362.219 239.5,364.5C 241.167,364.5 242.833,364.5 244.5,364.5C 244.263,363.209 244.596,362.209 245.5,361.5C 245.5,362.833 245.5,364.167 245.5,365.5C 243.167,365.5 240.833,365.5 238.5,365.5C 238.675,363.379 238.341,361.379 237.5,359.5 Z"/></g>
<g><path style="opacity:0.996" fill="#c6cede" d="M 284.5,363.5 C 287.999,364.134 288.999,365.967 287.5,369C 285.866,369.494 284.199,369.66 282.5,369.5C 282.259,367.114 282.925,365.114 284.5,363.5 Z"/></g>
<g><path style="opacity:0.996" fill="#c9d2e0" d="M 218.5,365.5 C 224.175,365.86 224.842,367.86 220.5,371.5C 217.531,370.235 216.865,368.235 218.5,365.5 Z"/></g>
<g><path style="opacity:0.996" fill="#c0c9db" d="M 270.5,366.5 C 275.159,366.015 276.492,367.848 274.5,372C 269.728,372.81 268.395,370.977 270.5,366.5 Z"/></g>
<g><path style="opacity:0.998" fill="#c5cede" d="M 231.5,367.5 C 236.158,367.653 237.158,369.486 234.5,373C 230.537,373.118 229.537,371.284 231.5,367.5 Z"/></g>
<g><path style="opacity:1" fill="#c4cddd" d="M 244.5,368.5 C 249.041,368.815 250.041,370.649 247.5,374C 243.537,374.118 242.537,372.284 244.5,368.5 Z"/></g>
<g><path style="opacity:0.997" fill="#c6cede" d="M 256.5,368.5 C 263.198,368.437 264.031,370.437 259,374.5C 256.984,373.045 256.151,371.045 256.5,368.5 Z"/></g>
<g><path style="opacity:0.122" fill="#415d90" d="M 179.5,378.5 C 181.027,378.427 182.027,379.094 182.5,380.5C 180.973,380.573 179.973,379.906 179.5,378.5 Z"/></g>
<g><path style="opacity:0.039" fill="#435e91" d="M 188.5,382.5 C 190.153,382.66 191.486,383.326 192.5,384.5C 190.62,384.771 189.287,384.104 188.5,382.5 Z"/></g>
<g><path style="opacity:0.494" fill="#466193" d="M 208.5,389.5 C 210.099,389.232 211.432,389.566 212.5,390.5C 212.565,390.938 212.399,391.272 212,391.5C 210.698,390.915 209.531,390.249 208.5,389.5 Z"/></g>
<g><path style="opacity:0.408" fill="#5d75a1" d="M 284.5,390.5 C 283.828,391.267 282.995,391.934 282,392.5C 281.601,392.272 281.435,391.938 281.5,391.5C 282.209,390.596 283.209,390.263 284.5,390.5 Z"/></g>
</svg>
