<?xml version="1.0" encoding="UTF-8"?>
<!DOCTYPE svg PUBLIC "-//W3C//DTD SVG 1.1//EN" "http://www.w3.org/Graphics/SVG/1.1/DTD/svg11.dtd">
<svg xmlns="http://www.w3.org/2000/svg" version="1.1" width="500px" height="500px" style="shape-rendering:geometricPrecision; text-rendering:geometricPrecision; image-rendering:optimizeQuality; fill-rule:evenodd; clip-rule:evenodd" xmlns:xlink="http://www.w3.org/1999/xlink">
<g><path style="opacity:0.909" fill="#fefffe" d="M 229.5,69.5 C 298.782,64.5597 352.282,90.893 390,148.5C 420.323,204.722 419.99,260.722 389,316.5C 352.219,371.974 300.386,397.807 233.5,394C 169.435,385.254 124.269,351.421 98,292.5C 77.7277,235.749 84.7277,182.749 119,133.5C 147.366,97.6515 184.199,76.3182 229.5,69.5 Z M 237.5,79.5 C 302.291,77.6336 351.124,104.3 384,159.5C 403.078,197.376 406.745,236.709 395,277.5C 376.127,331.04 339.294,365.207 284.5,380C 212.433,392.874 156.6,368.708 117,307.5C 91.0012,257.146 91.0012,206.813 117,156.5C 144.639,111.262 184.806,85.5952 237.5,79.5 Z M 181.5,171.5 C 223.743,167.238 245.076,186.405 245.5,229C 244.827,272.686 222.994,291.52 180,285.5C 178.358,248.213 178.025,210.88 179,173.5C 179.995,172.934 180.828,172.267 181.5,171.5 Z"/></g>
<g><path style="opacity:0.746" fill="#fefffe" d="M 243.5,89.5 C 250.198,89.4372 251.031,91.4372 246,95.5C 243.984,94.0448 243.151,92.0448 243.5,89.5 Z"/></g>
<g><path style="opacity:0.718" fill="#fefffe" d="M 257.5,89.5 C 261.909,88.899 263.242,90.5657 261.5,94.5C 256.732,95.8893 255.398,94.2226 257.5,89.5 Z"/></g>
<g><path style="opacity:0.762" fill="#fefffe" d="M 230.5,90.5 C 232.199,90.3398 233.866,90.5065 235.5,91C 236.833,92.3333 236.833,93.6667 235.5,95C 233.866,95.4935 232.199,95.6602 230.5,95.5C 230.5,93.8333 230.5,92.1667 230.5,90.5 Z"/></g>
<g><path style="opacity:0.725" fill="#fefffe" d="M 271.5,90.5 C 274.966,91.109 275.966,92.9423 274.5,96C 272.866,96.4935 271.199,96.6602 269.5,96.5C 269.259,94.1137 269.925,92.1137 271.5,90.5 Z"/></g>
<g><path style="opacity:0.727" fill="#fefffe" d="M 218.5,92.5 C 224.175,92.8597 224.842,94.8597 220.5,98.5C 217.531,97.2351 216.865,95.2351 218.5,92.5 Z"/></g>
<g><path style="opacity:0.738" fill="#fefffe" d="M 283.5,93.5 C 288.041,93.8152 289.041,95.6485 286.5,99C 285.207,99.49 283.873,99.6567 282.5,99.5C 282.325,97.3792 282.659,95.3792 283.5,93.5 Z"/></g>
<g><path style="opacity:0.692" fill="#fefffe" d="M 205.5,95.5 C 210.159,95.0146 211.492,96.848 209.5,101C 204.728,101.81 203.395,99.9771 205.5,95.5 Z"/></g>
<g><path style="opacity:0.816" fill="#fefffe" d="M 238.5,96.5 C 240.754,97.4151 242.754,98.7484 244.5,100.5C 243.5,101.333 242.5,102.167 241.5,103C 243.061,103.941 244.395,105.108 245.5,106.5C 236.833,112.833 228.167,119.167 219.5,125.5C 227.5,131.994 235.666,138.327 244,144.5C 244.09,146.768 242.923,148.268 240.5,149C 241.91,149.368 242.91,150.201 243.5,151.5C 242.055,153.063 240.389,154.396 238.5,155.5C 225.281,145.731 212.281,135.731 199.5,125.5C 212.824,116.163 225.824,106.496 238.5,96.5 Z"/></g>
<g><path style="opacity:0.839" fill="#fefffe" d="M 256.5,96.5 C 269.956,106.116 283.289,115.949 296.5,126C 283.307,136.026 269.974,145.86 256.5,155.5C 254.833,154.167 253.167,152.833 251.5,151.5C 252.09,150.201 253.09,149.368 254.5,149C 253.167,148 251.833,147 250.5,146C 259.218,138.948 268.218,132.281 277.5,126C 269.088,119.711 260.588,113.544 252,107.5C 251.837,105.613 252.671,104.113 254.5,103C 253.643,102.311 252.977,101.478 252.5,100.5C 253.549,98.7844 254.882,97.4511 256.5,96.5 Z"/></g>
<g><path style="opacity:0.696" fill="#fefffe" d="M 295.5,97.5 C 300.159,97.0146 301.492,98.848 299.5,103C 295.126,103.424 293.792,101.591 295.5,97.5 Z"/></g>
<g><path style="opacity:0.733" fill="#fefffe" d="M 194.5,99.5 C 197.966,100.109 198.966,101.942 197.5,105C 195.866,105.494 194.199,105.66 192.5,105.5C 192.259,103.114 192.925,101.114 194.5,99.5 Z"/></g>
<g><path style="opacity:0.712" fill="#fefffe" d="M 308.5,102.5 C 312.35,102.701 313.35,104.534 311.5,108C 308.763,109.08 307.096,108.246 306.5,105.5C 306.942,104.261 307.609,103.261 308.5,102.5 Z"/></g>
<g><path style="opacity:0.676" fill="#fefffe" d="M 181.5,105.5 C 186.159,105.015 187.492,106.848 185.5,111C 180.728,111.81 179.395,109.977 181.5,105.5 Z"/></g>
<g><path style="opacity:0.739" fill="#fefffe" d="M 319.5,108.5 C 323.485,108.629 324.818,110.463 323.5,114C 318.728,114.81 317.395,112.977 319.5,108.5 Z"/></g>
<g><path style="opacity:0.706" fill="#fefffe" d="M 170.5,112.5 C 175.587,112.284 176.587,114.118 173.5,118C 169.537,118.118 168.537,116.284 170.5,112.5 Z"/></g>
<g><path style="opacity:0.665" fill="#fefffe" d="M 330.5,115.5 C 333.127,115.293 334.793,116.46 335.5,119C 334.831,120.847 333.497,122.014 331.5,122.5C 329.239,120.516 328.906,118.183 330.5,115.5 Z"/></g>
<g><path style="opacity:0.708" fill="#fefffe" d="M 159.5,120.5 C 161.167,120.5 162.833,120.5 164.5,120.5C 164.923,123.288 163.923,125.288 161.5,126.5C 158.61,125.163 157.943,123.163 159.5,120.5 Z"/></g>
<g><path style="opacity:0.706" fill="#fefffe" d="M 340.5,124.5 C 345.159,124.015 346.492,125.848 344.5,130C 340.126,130.424 338.792,128.591 340.5,124.5 Z"/></g>
<g><path style="opacity:0.695" fill="#fefffe" d="M 150.5,128.5 C 154.225,128.537 155.558,130.204 154.5,133.5C 149.026,134.86 147.692,133.193 150.5,128.5 Z"/></g>
<g><path style="opacity:0.708" fill="#fefffe" d="M 349.5,133.5 C 354.159,133.015 355.492,134.848 353.5,139C 349.132,139.439 347.799,137.606 349.5,133.5 Z"/></g>
<g><path style="opacity:0.706" fill="#fefffe" d="M 141.5,138.5 C 146.041,138.815 147.041,140.649 144.5,144C 139.722,144.073 138.722,142.24 141.5,138.5 Z"/></g>
<g><path style="opacity:0.7" fill="#fefffe" d="M 358.5,143.5 C 362.521,143.244 363.854,144.91 362.5,148.5C 357.733,149.899 356.4,148.232 358.5,143.5 Z"/></g>
<g><path style="opacity:0.723" fill="#fefffe" d="M 133.5,148.5 C 139.521,149.836 139.855,151.836 134.5,154.5C 133.09,154.132 132.09,153.299 131.5,152C 132.305,150.887 132.972,149.721 133.5,148.5 Z"/></g>
<g><path style="opacity:0.931" fill="#fefffe" d="M 365.5,154.5 C 367.144,154.286 368.644,154.62 370,155.5C 372.584,158.336 373.751,161.669 373.5,165.5C 378.147,166.792 378.481,168.792 374.5,171.5C 373.545,179.837 373.379,188.171 374,196.5C 369.868,201.51 365.201,201.844 360,197.5C 358.779,189.617 356.779,181.95 354,174.5C 351.313,170.806 347.813,168.306 343.5,167C 336.508,166.5 329.508,166.334 322.5,166.5C 322.333,205.168 322.5,243.835 323,282.5C 323.272,287.438 325.772,290.604 330.5,292C 333.833,292.333 337.167,292.667 340.5,293C 343.704,296.065 344.038,299.398 341.5,303C 336.5,303.167 331.5,303.333 326.5,303.5C 310.971,303.312 295.305,303.146 279.5,303C 276.905,299.861 276.905,296.694 279.5,293.5C 283.111,292.738 286.778,292.238 290.5,292C 295.092,289.978 297.592,286.478 298,281.5C 298.5,243.168 298.667,204.835 298.5,166.5C 291.492,166.334 284.492,166.5 277.5,167C 271.841,167.996 268.007,171.162 266,176.5C 263.654,183.573 261.821,190.74 260.5,198C 262.853,203.243 264.353,208.743 265,214.5C 268.82,239.109 263.153,261.109 248,280.5C 234.629,293.175 218.629,299.509 200,299.5C 181.509,297.773 163.009,297.273 144.5,298C 143.632,294.233 142.965,290.399 142.5,286.5C 147.493,286.084 152.493,285.751 157.5,285.5C 157.998,282.513 158.498,279.513 159,276.5C 159.667,245.167 159.667,213.833 159,182.5C 158.39,179.173 157.89,175.839 157.5,172.5C 152.516,171.725 147.516,171.058 142.5,170.5C 143.244,166.881 143.577,163.215 143.5,159.5C 161.841,160.753 180.174,160.42 198.5,158.5C 216.971,157.933 233.138,163.6 247,175.5C 247.333,170.167 247.667,164.833 248,159.5C 248.903,158.299 250.069,157.465 251.5,157C 289.167,156.667 326.833,156.333 364.5,156C 365.056,155.617 365.389,155.117 365.5,154.5 Z M 181.5,171.5 C 180.828,172.267 179.995,172.934 179,173.5C 178.025,210.88 178.358,248.213 180,285.5C 222.994,291.52 244.827,272.686 245.5,229C 245.076,186.405 223.743,167.238 181.5,171.5 Z"/></g>
<g><path style="opacity:0.716" fill="#fefffe" d="M 126.5,159.5 C 130.054,159.658 131.387,161.325 130.5,164.5C 125.026,165.86 123.692,164.193 126.5,159.5 Z"/></g>
<g><path style="opacity:0.749" fill="#fefffe" d="M 120.5,171.5 C 124.521,171.244 125.854,172.91 124.5,176.5C 119.733,177.899 118.4,176.232 120.5,171.5 Z"/></g>
<g><path style="opacity:0.678" fill="#fefffe" d="M 377.5,177.5 C 382.159,177.015 383.492,178.848 381.5,183C 376.728,183.81 375.395,181.977 377.5,177.5 Z"/></g>
<g><path style="opacity:0.725" fill="#fefffe" d="M 115.5,183.5 C 119.485,183.629 120.818,185.463 119.5,189C 114.728,189.81 113.395,187.977 115.5,183.5 Z"/></g>
<g><path style="opacity:0.716" fill="#fefffe" d="M 382.5,189.5 C 386.068,189.759 387.401,191.759 386.5,195.5C 381.003,195.811 379.669,193.811 382.5,189.5 Z"/></g>
<g><path style="opacity:0.701" fill="#fefffe" d="M 111.5,196.5 C 116.159,196.015 117.492,197.848 115.5,202C 111.266,202.267 109.933,200.434 111.5,196.5 Z"/></g>
<g><path style="opacity:0.744" fill="#fefffe" d="M 385.5,202.5 C 389.35,202.701 390.35,204.534 388.5,208C 383.676,208.183 382.676,206.35 385.5,202.5 Z"/></g>
<g><path style="opacity:0.693" fill="#fefffe" d="M 108.5,209.5 C 110.199,209.34 111.866,209.506 113.5,210C 114.813,213.692 113.48,215.359 109.5,215C 108.594,213.301 108.261,211.467 108.5,209.5 Z"/></g>
<g><path style="opacity:0.679" fill="#fefffe" d="M 386.5,215.5 C 391.159,215.015 392.492,216.848 390.5,221C 385.728,221.81 384.395,219.977 386.5,215.5 Z"/></g>
<g><path style="opacity:0.745" fill="#fefffe" d="M 107.5,222.5 C 109.167,222.5 110.833,222.5 112.5,222.5C 112.563,229.198 110.563,230.031 106.5,225C 107.252,224.329 107.586,223.496 107.5,222.5 Z"/></g>
<g><path style="opacity:0.712" fill="#fefffe" d="M 387.5,228.5 C 391.692,228.403 393.025,230.236 391.5,234C 389.866,234.494 388.199,234.66 386.5,234.5C 386.325,232.379 386.659,230.379 387.5,228.5 Z"/></g>
<g><path style="opacity:0.74" fill="#fefffe" d="M 107.5,235.5 C 112.828,235.036 114.161,236.869 111.5,241C 110.216,241.684 109.049,241.517 108,240.5C 107.506,238.866 107.34,237.199 107.5,235.5 Z"/></g>
<g><path style="opacity:0.69" fill="#fefffe" d="M 387.5,241.5 C 389.844,241.506 391.178,242.673 391.5,245C 389.551,249.634 387.551,249.634 385.5,245C 385.978,243.697 386.645,242.531 387.5,241.5 Z"/></g>
<g><path style="opacity:0.701" fill="#fefffe" d="M 109.5,248.5 C 113.521,248.244 114.854,249.91 113.5,253.5C 108.733,254.899 107.4,253.232 109.5,248.5 Z"/></g>
<g><path style="opacity:0.702" fill="#fefffe" d="M 386.5,254.5 C 390.211,256.542 390.378,258.875 387,261.5C 382.547,259.345 382.38,257.012 386.5,254.5 Z"/></g>
<g><path style="opacity:0.729" fill="#fefffe" d="M 111.5,261.5 C 115.909,260.899 117.242,262.566 115.5,266.5C 111.317,267.309 109.984,265.642 111.5,261.5 Z"/></g>
<g><path style="opacity:0.739" fill="#fefffe" d="M 382.5,267.5 C 386.35,267.701 387.35,269.534 385.5,273C 380.676,273.183 379.676,271.35 382.5,267.5 Z"/></g>
<g><path style="opacity:0.734" fill="#fefffe" d="M 115.5,273.5 C 119.485,273.629 120.818,275.463 119.5,279C 114.728,279.81 113.395,277.977 115.5,273.5 Z"/></g>
<g><path style="opacity:0.695" fill="#fefffe" d="M 378.5,279.5 C 380.844,279.506 382.178,280.673 382.5,283C 380.551,287.634 378.551,287.634 376.5,283C 376.978,281.697 377.645,280.531 378.5,279.5 Z"/></g>
<g><path style="opacity:0.649" fill="#fefffe" d="M 120.5,285.5 C 125.493,285.997 126.493,288.164 123.5,292C 122.216,292.684 121.049,292.517 120,291.5C 119.322,289.402 119.489,287.402 120.5,285.5 Z"/></g>
<g><path style="opacity:0.653" fill="#fefffe" d="M 372.5,291.5 C 375.127,291.293 376.793,292.46 377.5,295C 376.831,296.847 375.497,298.014 373.5,298.5C 371.239,296.516 370.906,294.183 372.5,291.5 Z"/></g>
<g><path style="opacity:0.72" fill="#fefffe" d="M 126.5,297.5 C 130.054,297.658 131.387,299.325 130.5,302.5C 128.389,303.848 126.555,303.515 125,301.5C 124.7,299.934 125.2,298.601 126.5,297.5 Z"/></g>
<g><path style="opacity:0.688" fill="#fefffe" d="M 365.5,303.5 C 370.159,303.015 371.492,304.848 369.5,309C 364.711,309.845 363.377,308.011 365.5,303.5 Z"/></g>
<g><path style="opacity:0.725" fill="#fefffe" d="M 133.5,308.5 C 138.92,309.303 139.587,311.303 135.5,314.5C 131.198,313.566 130.532,311.566 133.5,308.5 Z"/></g>
<g><path style="opacity:0.701" fill="#fefffe" d="M 358.5,314.5 C 363.587,314.284 364.587,316.118 361.5,320C 357.537,320.118 356.537,318.284 358.5,314.5 Z"/></g>
<g><path style="opacity:0.816" fill="#fefffe" d="M 250.5,315.5 C 254.169,314.697 256.836,315.864 258.5,319C 268.308,325.974 277.974,333.141 287.5,340.5C 277.345,348.41 267.012,356.077 256.5,363.5C 255.019,362.52 253.685,361.353 252.5,360C 261.167,353.333 269.833,346.667 278.5,340C 272.833,335.667 267.167,331.333 261.5,327C 259.783,325.441 257.783,324.608 255.5,324.5C 251.753,338.072 248.42,351.739 245.5,365.5C 243.167,365.5 240.833,365.5 238.5,365.5C 239.041,362.348 238.041,359.848 235.5,358C 227.142,352.487 219.142,346.487 211.5,340C 221.912,332.377 232.412,324.877 243,317.5C 245.268,318.076 246.268,319.41 246,321.5C 237.412,327.544 228.912,333.711 220.5,340C 226.691,345.025 233.024,349.858 239.5,354.5C 243.944,341.724 247.611,328.724 250.5,315.5 Z"/></g>
<g><path style="opacity:0.735" fill="#fefffe" d="M 142.5,318.5 C 147.116,320.394 147.45,322.728 143.5,325.5C 138.802,323.546 138.469,321.213 142.5,318.5 Z"/></g>
<g><path style="opacity:0.682" fill="#fefffe" d="M 350.5,323.5 C 352.844,323.506 354.178,324.673 354.5,327C 352.551,331.634 350.551,331.634 348.5,327C 348.978,325.697 349.645,324.531 350.5,323.5 Z"/></g>
<g><path style="opacity:0.733" fill="#fefffe" d="M 150.5,328.5 C 154.068,328.759 155.401,330.759 154.5,334.5C 149.211,334.598 147.878,332.598 150.5,328.5 Z"/></g>
<g><path style="opacity:0.724" fill="#fefffe" d="M 340.5,333.5 C 345.587,333.284 346.587,335.118 343.5,339C 339.537,339.118 338.537,337.284 340.5,333.5 Z"/></g>
<g><path style="opacity:0.684" fill="#fefffe" d="M 159.5,337.5 C 164.159,337.015 165.492,338.848 163.5,343C 159.126,343.424 157.792,341.591 159.5,337.5 Z"/></g>
<g><path style="opacity:0.741" fill="#fefffe" d="M 330.5,341.5 C 335.158,341.653 336.158,343.486 333.5,347C 329.537,347.118 328.537,345.284 330.5,341.5 Z"/></g>
<g><path style="opacity:0.672" fill="#fefffe" d="M 170.5,344.5 C 176.076,345.555 176.743,347.889 172.5,351.5C 169.452,349.875 168.785,347.542 170.5,344.5 Z"/></g>
<g><path style="opacity:0.719" fill="#fefffe" d="M 319.5,348.5 C 323.521,348.244 324.854,349.91 323.5,353.5C 318.733,354.899 317.4,353.232 319.5,348.5 Z"/></g>
<g><path style="opacity:0.705" fill="#fefffe" d="M 181.5,351.5 C 185.485,351.629 186.818,353.463 185.5,357C 180.728,357.81 179.395,355.977 181.5,351.5 Z"/></g>
<g><path style="opacity:0.715" fill="#fefffe" d="M 308.5,354.5 C 312.35,354.701 313.35,356.534 311.5,360C 306.289,360.546 305.289,358.713 308.5,354.5 Z"/></g>
<g><path style="opacity:0.669" fill="#fefffe" d="M 193.5,357.5 C 198.159,357.015 199.492,358.848 197.5,363C 192.728,363.81 191.395,361.977 193.5,357.5 Z"/></g>
<g><path style="opacity:0.73" fill="#fefffe" d="M 296.5,359.5 C 300.35,359.701 301.35,361.534 299.5,365C 294.289,365.546 293.289,363.713 296.5,359.5 Z"/></g>
<g><path style="opacity:0.774" fill="#fefffe" d="M 205.5,362.5 C 207.167,362.5 208.833,362.5 210.5,362.5C 210.5,364.167 210.5,365.833 210.5,367.5C 205.58,368.585 203.913,366.918 205.5,362.5 Z"/></g>
<g><path style="opacity:0.716" fill="#fefffe" d="M 284.5,363.5 C 287.966,364.109 288.966,365.942 287.5,369C 285.866,369.494 284.199,369.66 282.5,369.5C 282.259,367.114 282.925,365.114 284.5,363.5 Z"/></g>
<g><path style="opacity:0.683" fill="#fefffe" d="M 218.5,365.5 C 223.159,365.015 224.492,366.848 222.5,371C 217.728,371.81 216.395,369.977 218.5,365.5 Z"/></g>
<g><path style="opacity:0.692" fill="#fefffe" d="M 270.5,366.5 C 275.159,366.015 276.492,367.848 274.5,372C 269.728,372.81 268.395,370.977 270.5,366.5 Z"/></g>
<g><path style="opacity:0.737" fill="#fefffe" d="M 231.5,367.5 C 236.158,367.653 237.158,369.486 234.5,373C 230.537,373.118 229.537,371.284 231.5,367.5 Z"/></g>
<g><path style="opacity:0.701" fill="#fefffe" d="M 244.5,368.5 C 249.268,368.631 250.268,370.465 247.5,374C 243.537,374.118 242.537,372.284 244.5,368.5 Z"/></g>
<g><path style="opacity:0.737" fill="#fefffe" d="M 256.5,368.5 C 263.198,368.437 264.031,370.437 259,374.5C 256.984,373.045 256.151,371.045 256.5,368.5 Z"/></g>
</svg>
