<?xml version="1.0" encoding="UTF-8" standalone="no"?> <svg xmlns="http://www.w3.org/2000/svg" viewBox="0 0 64 64"><title>1</title><g id="Layer_86" data-name="Layer 86"><path d="M50.31,32.05a2,2,0,0,0-2,2V52.9a3.16,3.16,0,0,1-3.16,3.16H11.4A3.16,3.16,0,0,1,8.24,52.9V19.15A3.16,3.16,0,0,1,11.4,16H30.25a2,2,0,0,0,0-4H11.4a7.17,7.17,0,0,0-7.16,7.16V52.9a7.17,7.17,0,0,0,7.16,7.16H45.15a7.17,7.17,0,0,0,7.16-7.16V34.05A2,2,0,0,0,50.31,32.05Z"/><path d="M58,6.27h0l-1-.94a5.34,5.34,0,0,0-7.55.37,5.27,5.27,0,0,0-.81,1.23,2,2,0,0,0-.87-.16,2,2,0,0,0-1.38.65L24.91,31.08a2,2,0,0,0-.48,1l-2,9.83A2,2,0,0,0,25,44.17l9.59-2.9a2,2,0,0,0,.9-.57L57,17a2,2,0,0,0,.27-2.29A5.27,5.27,0,0,0,58,6.27ZM52.39,8.38a1.34,1.34,0,0,1,.93-.44h.07a1.34,1.34,0,0,1,.9.35l1,.94a1.34,1.34,0,0,1-.84,2.33,1.38,1.38,0,0,1-1-.34l-.37-.33-.67-.61A1.34,1.34,0,0,1,52.39,8.38ZM32.91,37.6,27,39.37l1.2-6L48,11.59,50.61,14l.21.19h0l1.82,1.65Z"/></g></svg>