<?xml version="1.0" encoding="UTF-8"?>
<!DOCTYPE svg PUBLIC "-//W3C//DTD SVG 1.1//EN" "http://www.w3.org/Graphics/SVG/1.1/DTD/svg11.dtd">
<!-- Creator: CorelDRAW -->
<svg xmlns="http://www.w3.org/2000/svg" xml:space="preserve" width="1.70666in" height="1.70666in" version="1.1" style="shape-rendering:geometricPrecision; text-rendering:geometricPrecision; image-rendering:optimizeQuality; fill-rule:evenodd; clip-rule:evenodd"
viewBox="0 0 1707 1707"
 xmlns:xlink="http://www.w3.org/1999/xlink"
 stroke="#F3FFFC">
 <defs>
  <style type="text/css">
   <![CDATA[
    .fil0 {fill:black}
   ]]>
  </style>
 </defs>
 <g id="Layer_x0020_1">
  <metadata id="CorelCorpID_0Corel-Layer"/>
  <path class="fil0" d="M1309 1659l-1180 0c-71,0 -129,-63 -129,-141l0 -1329c0,-78 58,-141 129,-141l929 0 0 300c0,12 11,23 24,23l250 0 0 1265c0,13 -10,23 -23,23zm-204 -1598l214 263 -214 0 0 -263zm-592 628l-326 0c-13,0 -24,-11 -24,-23l0 -243c0,-13 11,-24 24,-24l326 0c12,0 23,11 23,24l0 243c0,12 -11,23 -23,23zm-303 -47l279 0 0 -196 -279 0 0 196zm303 411l-326 0c-13,0 -24,-10 -24,-23l0 -243c0,-13 11,-23 24,-23l326 0c12,0 23,10 23,23l0 243c0,13 -11,23 -23,23zm-303 -47l279 0 0 -196 -279 0 0 196zm303 411l-326 0c-13,0 -24,-10 -24,-23l0 -243c0,-13 11,-23 24,-23l326 0c12,0 23,10 23,23l0 243c0,13 -11,23 -23,23zm-303 -46l279 0 0 -197 -279 0 0 197zm930 -844l-567 0c-13,0 -23,-10 -23,-23 0,-13 10,-24 23,-24l567 0c13,0 23,11 23,24 0,13 -10,23 -23,23zm-118 84l-331 0c-13,0 -23,-10 -23,-23 0,-13 10,-23 23,-23l331 0c13,0 23,10 23,23 0,13 -10,23 -23,23zm118 263l-567 0c-13,0 -23,-10 -23,-23 0,-13 10,-23 23,-23l567 0c13,0 23,10 23,23 0,13 -10,23 -23,23zm-118 85l-331 0c-13,0 -23,-11 -23,-24 0,-13 10,-23 23,-23l331 0c13,0 23,10 23,23 0,13 -10,24 -23,24zm118 263l-567 0c-13,0 -23,-11 -23,-24 0,-13 10,-23 23,-23l567 0c13,0 23,11 23,23 0,13 -10,24 -23,24zm-118 84l-331 0c-13,0 -23,-10 -23,-23 0,-13 10,-24 23,-24l331 0c13,0 23,11 23,24 0,13 -10,23 -23,23z"/>
  <path class="fil0" d="M1565 1659c0,0 0,0 0,0 -8,0 -15,-3 -19,-9l-107 -144 256 0 -112 144c-4,6 -11,9 -18,9zm-138 -200l0 -1156c8,3 15,4 24,4l232 0c8,0 16,-1 24,-4l0 1156 -280 0z"/>
  <path class="fil0" d="M1683 261l-232 0c-13,0 -24,-11 -24,-24l0 -83c0,-59 48,-107 107,-107l66 0c59,0 107,48 107,107l0 83c0,13 -11,24 -24,24z"/>
 </g>
</svg>
